<svg version="1.1" xmlns="http://www.w3.org/2000/svg" xmlns:xlink="http://www.w3.org/1999/xlink" width="37" height="27" viewBox="0,0,256,186.79688"><g fill="#ffffff" fill-rule="nonzero" stroke="none" stroke-width="1" stroke-linecap="butt" stroke-linejoin="miter" stroke-miterlimit="10" stroke-dasharray="" stroke-dashoffset="0" font-family="none" font-weight="none" font-size="none" text-anchor="none" style="mix-blend-mode: normal"><g transform="translate(1.6188,-0.2866) scale(6.91892,6.91892)"><path d="M35.9895,24.5904c-0.0217,-0.0617 -0.0471,-0.1221 -0.076,-0.1808l-10.7858,-21.79352c-0.554,-1.28075 -1.7079,-2.20278 -3.0794,-2.46066c-1.3714,-0.25789 -2.7814,0.18203 -3.7629,1.17403l-2.6501,5.04576l-6.36008,13.39629c-1.05014,2.024 -2.70604,3.3642 -4.67879,3.8334l9.73857,-19.60871c0.0195,-0.03989 0.0375,-0.08037 0.0541,-0.12144c0.1592,-0.35783 0.5144,-0.58821 0.906,-0.58769c0.0369,0.00063 0.0736,0.00335 0.1101,0.00816l1.6018,-2.84905c-1.0262,-0.45757 -2.1929,-0.48499 -3.2395,-0.07615c-1.0465,0.40884 -1.8857,1.21988 -2.3299,2.25189l-10.79716,21.74339c-0.0166,0.0312 -0.03203,0.0629 -0.04662,0.0958c-0.23991,0.5311 -0.20367,1.1462 0.09694,1.6455c0.30064,0.4993 0.82732,0.8191 1.409,0.8555c0.29385,0.0245 0.59119,0.0367 0.88503,0.0367c3.86541,0 7.28671,-2.16 9.15081,-5.779c0.0079,-0.0155 0.0158,-0.0309 0.023,-0.0469l6.0686,-12.78388l0.0017,-0.00408l0.0539,-0.11299l1.7765,-3.73204l-0.0026,-0.00553l0.2673,-0.56323c0.0112,-0.02369 0.0218,-0.04747 0.0317,-0.07135c0.1538,-0.37093 0.5158,-0.61275 0.9174,-0.61275c0.4015,0 0.7635,0.24182 0.9174,0.61275c0.0131,0.03232 0.0291,0.06436 0.0433,0.09581l9.7042,19.60839c-1.9588,-0.4706 -3.6065,-1.8099 -4.6552,-3.8319l-6.3866,-13.46912l-1.7633,3.76142l5.2659,11.1062c0.0076,0.0157 0.0154,0.0317 0.0233,0.0474c1.893,3.673 5.2176,5.7791 9.1243,5.7791c0.3085,0 0.6207,-0.0137 0.9279,-0.0405c0.1945,-0.0167 0.3844,-0.069 0.56,-0.1543c0.8544,-0.3684 1.2732,-1.3391 0.9549,-2.2133"></path></g></g></svg>